# xmcd
#
# Track frame offsets:
#	183
#	13373
#	25203
#	42648
#	55415
#	74423
#	87793
#	98473
#	111353
#	122558
#	135083
#	146573
#	158533
#	170013
#	186818
#	197088
#	209795
#	220688
#	233070
#	245033
#	264803
#	277038
#	289328
#	299458
#	313965
#
# Disc length: 4354 seconds
#
# Revision: 3
# Processed by: cddbd v1.4PL0 Copyright (c) Steve Scherf et al.
# Submitted via: MusicWizard 6.0.2
#
DISCID=83110019
DTITLE=Various Artist - 100 Soul Hits  Vol. 2
DYEAR=1991
DGENRE=Soul
TTITLE0=The Drifters - On Broadway
TTITLE1=Sam and Dave - Hold On I'm Coming
TTITLE2=James Brown - It's A Man's, Man's World
TTITLE3=The Drells - Oh What A Night
TTITLE4=Eddie Floyd - California Girl
TTITLE5=Ben E. King - Spanish Harlem
TTITLE6=The Drifters - True Love
TTITLE7=Ramsey Lewis - Soul Man
TTITLE8=Brook Benton - So Many Ways
TTITLE9=Gladys Knight  and The Pips - Letter Full Of Tears
TTITLE10=Rufus Thomas - Walking The Dog
TTITLE11=Remsey Lewis - High Heel Sneakers
TTITLE12=Maxine Brown - All In My Mind
TTITLE13=Gladys Knigh t& The Pips - Best Thing That Ever Happened To Me
TTITLE14=James Brown - Turn It Loose
TTITLE15=Sam and Dave - Said I Wasn't Gonna Tell Nobody
TTITLE16=Ben E. King - I Who Have Nothing
TTITLE17=Mary Wells - My Guy
TTITLE18=The Drifters - Sweets For My Sweet
TTITLE19=Gladys Knight and The Pips - Georgia On My Mind
TTITLE20=Brook Benton - The Boll Weevil Song
TTITLE21=Sam and Dave - You Don't Know Like I Know
TTITLE22=James Brown - Get Up Off That Thang
TTITLE23=Percy Sledge - Warm And Tender Love
TTITLE24=Jerry Buttler - The Challenge
EXTD=
EXTT0=
EXTT1=
EXTT2=
EXTT3=
EXTT4=
EXTT5=
EXTT6=
EXTT7=
EXTT8=
EXTT9=
EXTT10=
EXTT11=
EXTT12=
EXTT13=
EXTT14=
EXTT15=
EXTT16=
EXTT17=
EXTT18=
EXTT19=
EXTT20=
EXTT21=
EXTT22=
EXTT23=
EXTT24=
PLAYORDER=
